<?xml version="1.0" encoding="UTF-8" standalone="no"?>
<!-- Created with Inkscape (http://www.inkscape.org/) -->

<svg
   version="1.1"
   id="svg2"
   viewBox="190 200 470 600"
   sodipodi:docname="threads.ai"
   xmlns:inkscape="http://www.inkscape.org/namespaces/inkscape"
   xmlns:sodipodi="http://sodipodi.sourceforge.net/DTD/sodipodi-0.dtd"
   xmlns="http://www.w3.org/2000/svg"
   xmlns:svg="http://www.w3.org/2000/svg">
  <defs
     id="defs6">
    <clipPath
       clipPathUnits="userSpaceOnUse"
       id="clipPath16">
      <path
         d="M 0,792 H 612 V 0 H 0 Z"
         id="path14" />
    </clipPath>
  </defs>
  <sodipodi:namedview
     id="namedview4"
     pagecolor="#ffffff"
     bordercolor="#000000"
     borderopacity="0.25"
     inkscape:showpageshadow="2"
     inkscape:pageopacity="0.0"
     inkscape:pagecheckerboard="0"
     inkscape:deskcolor="#d1d1d1" />
  <g
     id="g8"
     inkscape:groupmode="layer"
     inkscape:label="threads"
     transform="matrix(1.3333333,0,0,-1.3333333,0,1056)">
    <g
       id="g10">
      <g
         id="g12"
         clip-path="url(#clipPath16)">
        <g
           id="g18"
           transform="translate(351.5487,388.618)">
          <path
             d="m 0,0 c -0.397,0.092 -0.815,0.215 -1.242,0.286 -2.299,0.447 -4.589,0.915 -6.898,1.301 -1.516,0.265 -3.042,0.429 -4.577,0.601 -1.527,0.173 -3.063,0.336 -4.609,0.437 -2.625,0.163 -5.261,0.367 -7.895,0.428 -5.83,0.121 -11.659,0.203 -17.459,-0.478 -2.818,-0.326 -5.626,-0.763 -8.414,-1.262 -4.619,-0.814 -8.983,-2.37 -13.123,-4.558 -3.012,-1.607 -5.698,-3.612 -7.987,-6.124 -3.917,-4.314 -5.951,-9.391 -6.023,-15.221 -0.01,-1.17 0.152,-2.35 0.305,-3.53 0.347,-2.686 1.221,-5.219 2.595,-7.538 2.075,-3.49 4.934,-6.278 8.382,-8.424 4.427,-2.757 9.259,-4.436 14.387,-5.281 1.79,-0.284 3.59,-0.691 5.381,-0.722 3.094,-0.04 6.186,0.05 9.259,0.295 2.4,0.204 4.802,0.59 7.142,1.119 8.902,2.034 15.942,6.817 20.978,14.477 4.812,7.325 7.142,15.547 8.546,24.082 0.427,2.595 0.641,5.229 0.966,7.833 C -0.204,-1.535 -0.102,-0.792 0,0 M 96.183,68.073 C 93.344,67.311 90.516,66.537 87.687,65.775 81.563,64.137 75.428,62.508 69.303,60.87 c -0.325,-0.08 -0.661,-0.152 -0.935,-0.213 -1.099,3.419 -2.157,6.887 -3.337,10.306 -1.985,5.758 -4.376,11.354 -7.213,16.746 -3.816,7.274 -8.283,14.121 -13.705,20.307 -4.842,5.545 -10.256,10.458 -16.248,14.732 -6.888,4.924 -14.324,8.82 -22.229,11.832 -6.196,2.351 -12.555,4.171 -19.066,5.423 -2.33,0.437 -4.67,0.874 -7.019,1.221 -1.924,0.284 -3.867,0.447 -5.8,0.651 -2.095,0.233 -4.192,0.447 -6.298,0.65 -0.864,0.092 -1.729,0.102 -2.604,0.143 -1.049,0.051 -2.107,0.102 -3.165,0.153 l -0.478,0.03 c -3.173,0 -6.347,0.051 -9.522,-0.03 -2.482,-0.061 -4.975,-0.245 -7.457,-0.458 -2.697,-0.224 -5.393,-0.437 -8.048,-0.865 -4.08,-0.631 -8.159,-1.322 -12.188,-2.218 -9.4,-2.075 -18.384,-5.32 -26.869,-9.889 -6.196,-3.326 -11.914,-7.335 -17.183,-12.005 -6.848,-6.074 -12.586,-13.063 -17.418,-20.815 -3.602,-5.769 -6.563,-11.863 -9.147,-18.14 -2.757,-6.725 -4.832,-13.664 -6.531,-20.704 -1.455,-6.033 -2.636,-12.107 -3.367,-18.262 -0.529,-4.375 -0.998,-8.75 -1.425,-13.135 -0.244,-2.493 -0.417,-4.995 -0.478,-7.498 -0.153,-5.727 -0.264,-11.445 -0.305,-17.183 -0.01,-2.564 0.121,-5.128 0.325,-7.692 0.356,-4.639 0.702,-9.298 1.282,-13.917 0.631,-5.097 1.445,-10.174 2.329,-15.231 1.1,-6.388 2.767,-12.655 4.721,-18.841 2.34,-7.448 5.332,-14.62 9.004,-21.518 3.337,-6.268 7.234,-12.168 11.802,-17.611 4.08,-4.863 8.618,-9.228 13.623,-13.135 5.096,-3.978 10.56,-7.345 16.379,-10.163 5.922,-2.868 12.046,-5.169 18.415,-6.836 2.707,-0.713 5.413,-1.456 8.149,-2.015 2.635,-0.55 5.311,-0.936 7.977,-1.313 2.98,-0.427 5.972,-0.793 8.972,-1.109 1.507,-0.152 3.043,-0.142 4.579,-0.193 2.168,-0.071 4.335,-0.173 6.501,-0.193 2.543,-0.021 5.098,-0.051 7.63,0.061 3.429,0.153 6.858,0.284 10.256,0.661 7.183,0.752 14.304,1.861 21.284,3.785 8.047,2.207 15.688,5.361 22.84,9.685 7.294,4.406 13.805,9.797 19.584,16.024 6.746,7.264 11.69,15.566 14.406,25.139 0.58,2.046 1.048,4.121 1.384,6.217 0.387,2.391 0.601,4.811 0.814,7.223 0.132,1.567 0.285,3.165 0.173,4.741 -0.204,2.931 -0.468,5.87 -0.927,8.78 -0.793,5.006 -2.349,9.797 -4.679,14.304 -3.063,5.942 -7.223,10.999 -12.371,15.22 -2.351,1.934 -4.914,3.602 -7.387,5.393 -0.223,0.152 -0.488,0.274 -0.772,0.448 -0.296,-1.934 -0.529,-3.776 -0.866,-5.616 -0.386,-2.077 -0.823,-4.142 -1.291,-6.207 -0.469,-1.993 -0.947,-3.998 -1.527,-5.971 -1.73,-5.851 -3.937,-11.487 -6.866,-16.848 -3.257,-5.983 -7.245,-11.416 -12.139,-16.178 -3.804,-3.692 -8.046,-6.805 -12.686,-9.4 -5.056,-2.818 -10.439,-4.832 -16.045,-6.237 -2.543,-0.63 -5.147,-1.058 -7.742,-1.454 -2.167,-0.325 -4.354,-0.58 -6.541,-0.682 -3.297,-0.131 -6.603,-0.254 -9.909,-0.111 -2.818,0.111 -5.637,0.57 -8.445,0.936 -1.546,0.202 -3.112,0.386 -4.598,0.813 -3.409,0.977 -6.827,1.984 -10.144,3.216 -5.534,2.054 -10.632,4.944 -15.302,8.565 -8.616,6.684 -14.751,15.129 -17.855,25.619 -0.884,2.98 -1.373,6.094 -1.932,9.166 -0.621,3.398 -0.398,6.857 -0.306,10.276 0.061,2.126 0.459,4.252 0.865,6.359 2.178,11.292 7.681,20.683 16.248,28.323 7.142,6.358 15.444,10.611 24.488,13.511 4.975,1.597 10.052,2.747 15.231,3.378 2.889,0.356 5.789,0.559 8.688,0.793 6.155,0.488 12.32,0.519 18.485,0.306 2.737,-0.092 5.485,-0.265 8.211,-0.49 2.533,-0.192 5.057,-0.478 7.569,-0.782 2.014,-0.245 4.019,-0.57 6.135,-0.875 -0.132,0.732 -0.194,1.424 -0.376,2.096 -0.886,3.306 -1.638,6.663 -2.757,9.878 -1.852,5.342 -4.721,10.113 -8.81,14.091 -3.776,3.662 -8.262,6.165 -13.268,7.732 -2.065,0.641 -4.181,1.139 -6.308,1.556 -1.556,0.296 -3.153,0.418 -4.73,0.509 -2.635,0.153 -5.27,0.357 -7.905,0.306 -3.021,-0.072 -6.023,-0.438 -9.004,-1.068 -3.611,-0.754 -7.101,-1.863 -10.408,-3.48 -6.073,-2.981 -10.957,-7.336 -14.762,-12.901 -0.122,-0.173 -0.244,-0.335 -0.417,-0.569 -7.875,5.412 -15.719,10.794 -23.685,16.257 1.313,1.771 2.554,3.562 3.897,5.251 4.537,5.728 9.91,10.56 16.065,14.518 3.703,2.379 7.63,4.354 11.73,5.971 4.73,1.873 9.624,3.225 14.65,4.05 2.117,0.345 4.263,0.59 6.41,0.721 3.418,0.204 6.847,0.428 10.255,0.316 3.611,-0.112 7.223,-0.58 10.824,-0.946 1.446,-0.142 2.9,-0.367 4.325,-0.661 6.968,-1.476 13.653,-3.754 19.889,-7.295 6.329,-3.592 11.822,-8.17 16.472,-13.766 4.028,-4.842 7.273,-10.193 9.716,-15.992 1.272,-3.002 2.431,-6.084 3.377,-9.207 0.917,-2.981 1.597,-6.034 2.208,-9.096 0.6,-3.022 1.038,-6.073 1.435,-9.136 0.264,-1.973 0.335,-3.978 0.509,-5.972 0.051,-0.57 0.151,-1.129 0.243,-1.75 6.206,-2.645 12.188,-5.871 17.814,-9.726 8.842,-6.074 16.431,-13.42 22.403,-22.383 3.337,-5.005 6.054,-10.346 8.089,-16.033 1.464,-4.05 2.624,-8.18 3.418,-12.403 0.448,-2.36 0.793,-4.74 1.028,-7.141 0.265,-2.625 0.396,-5.25 0.488,-7.885 0.092,-2.269 0.143,-4.538 0.02,-6.796 -0.153,-2.625 -0.508,-5.239 -0.803,-7.855 -0.672,-6.043 -2.248,-11.893 -4.294,-17.61 -1.454,-4.07 -3.265,-7.997 -5.3,-11.812 -3.806,-7.143 -8.526,-13.633 -14.009,-19.554 -5.932,-6.41 -12.474,-12.128 -19.646,-17.143 -5.27,-3.663 -10.805,-6.867 -16.615,-9.605 -5.106,-2.39 -10.366,-4.395 -15.768,-6.043 -5.169,-1.566 -10.409,-2.869 -15.739,-3.794 -2.381,-0.407 -4.762,-0.793 -7.142,-1.109 -2.462,-0.325 -4.925,-0.58 -7.386,-0.815 -1.964,-0.202 -3.927,-0.365 -5.902,-0.498 -1.973,-0.131 -3.956,-0.203 -5.941,-0.305 -0.092,-0.01 -0.194,-0.112 -0.294,-0.173 h -12.78 c -0.121,0.051 -0.253,0.143 -0.386,0.153 -1.617,0.071 -3.235,0.071 -4.842,0.183 -2.381,0.183 -4.752,0.427 -7.123,0.652 -1.658,0.141 -3.326,0.243 -4.975,0.478 -2.228,0.304 -4.425,0.731 -6.643,1.088 -6.318,1.048 -12.544,2.502 -18.699,4.293 -2.371,0.682 -4.741,1.455 -7.071,2.32 -2.259,0.834 -4.477,1.76 -6.674,2.757 -3.174,1.454 -6.358,2.9 -9.452,4.497 -7,3.621 -13.511,7.976 -19.605,12.961 -5.656,4.639 -10.825,9.787 -15.565,15.362 -5.992,7.041 -10.998,14.732 -15.505,22.77 -1.262,2.249 -2.32,4.628 -3.418,6.969 -4.508,9.573 -7.997,19.513 -10.571,29.768 -0.967,3.866 -1.801,7.763 -2.656,11.659 -0.315,1.436 -0.549,2.91 -0.813,4.355 -0.265,1.486 -0.58,2.94 -0.794,4.425 -0.407,2.849 -0.742,5.698 -1.12,8.546 -0.163,1.262 -0.355,2.524 -0.478,3.785 -0.142,1.333 -0.214,2.676 -0.335,4.008 -0.153,1.852 -0.336,3.703 -0.469,5.545 -0.08,1.14 -0.101,2.269 -0.162,3.388 -0.102,2.107 -0.244,4.213 -0.316,6.318 -0.061,1.781 -0.051,3.56 -0.08,5.341 V 6.715 8.2 c -0.01,0.753 -0.022,1.496 -0.031,2.25 0.009,0.07 0.041,0.152 0.041,0.233 0.08,2.91 0.142,5.83 0.244,8.739 0.071,1.923 0.193,3.835 0.326,5.749 0.141,2.035 0.304,4.069 0.478,6.104 0.141,1.627 0.284,3.276 0.478,4.903 0.264,2.351 0.569,4.721 0.905,7.061 0.396,2.758 0.835,5.504 1.292,8.261 0.336,1.995 0.723,3.968 1.109,5.953 1.262,6.531 2.9,12.96 4.883,19.299 3.327,10.642 7.54,20.918 13.125,30.572 1.892,3.286 3.907,6.502 6.023,9.645 5.046,7.488 10.885,14.324 17.478,20.52 7.539,7.061 15.861,13.003 24.956,17.877 10.377,5.565 21.355,9.531 32.812,12.208 5.412,1.261 10.875,2.289 16.42,2.888 3.469,0.357 6.928,0.774 10.398,1.08 2.42,0.213 4.852,0.264 7.283,0.386 0.163,0.01 0.326,0.082 0.489,0.133 h 10.702 c 0.529,-0.113 1.039,-0.276 1.568,-0.306 2.055,-0.143 4.11,-0.213 6.165,-0.335 2.076,-0.143 4.151,-0.296 6.217,-0.489 2.502,-0.255 5.026,-0.457 7.507,-0.855 3.897,-0.631 7.793,-1.291 11.649,-2.146 4.029,-0.905 8.028,-1.975 11.985,-3.154 3.144,-0.937 6.207,-2.137 9.279,-3.267 5.046,-1.85 9.889,-4.129 14.619,-6.672 10.246,-5.516 19.514,-12.353 27.776,-20.562 6.948,-6.899 13.164,-14.417 18.241,-22.82 2.218,-3.662 4.517,-7.305 6.419,-11.13 2.493,-5.016 4.803,-10.133 6.847,-15.333 1.852,-4.72 3.216,-9.633 4.813,-14.436 0.264,-0.794 0.621,-1.546 0.936,-2.32 z"
             style="fill:#231f20;fill-opacity:1;fill-rule:nonzero;stroke:none"
             id="path20" />
        </g>
      </g>
    </g>
  </g>
</svg>
